# xmcd CD database file
# Copyright (C) 1996 Ti Kan
#
# Track frame offsets:
#	150
#	11857
#	22230
#	31695
#	40932
#	50820
#	60527
#	69677
#	78505
#	88862
#	100525
#	109250
#
# Disc length: 1558 seconds
#
# Revision: 1
# Processed by: cddbd v1.4b41PL1 Copyright (c) Steve Scherf et al.
# Submitted via: EasyCD 2.21 - (C) 1996 Greg Leichner
#
DISCID=9f06140c
DTITLE=Doug and Rusty Kershaw - The Best Of Doug and Rusty Kershaw
DYEAR=1900
DGENRE=
TTITLE0=Lousana Man
TTITLE1=Kaw Liga
TTITLE2=Diggy Liggy Lo
TTITLE3=(Our Own) Jole Blon
TTITLE4=Cajun Joe (The Bully Of The Bayou)
TTITLE5=The Love I Want
TTITLE6=Oh Love
TTITLE7=Why Don't You Love Me
TTITLE8=Hey Mae
TTITLE9=Your Crazy,Crazy Heart
TTITLE10=Sweet Thing (Tell Me That You Love Me)
TTITLE11=I Like You Like This
EXTD=
EXTT0=
EXTT1=
EXTT2=
EXTT3=
EXTT4=
EXTT5=
EXTT6=
EXTT7=
EXTT8=
EXTT9=
EXTT10=
EXTT11=
PLAYORDER=
